<svg width="33" height="35" viewBox="0 0 33 35" fill="none" xmlns="http://www.w3.org/2000/svg">
<path d="M14.3315 0L12.2899 5.19244C11.8816 5.32334 11.5142 5.54151 11.1467 5.75968L6.28788 3.57798L3.34809 6.71962L5.38961 11.9121C5.18546 12.3484 5.02214 12.6975 4.85882 13.1338L0 15.3155V19.6789L4.85882 21.8606C5.02214 22.2969 5.18546 22.646 5.38961 23.0823L3.34809 28.2748L6.28788 31.4164L11.1467 29.2347C11.5142 29.4093 11.8816 29.6274 12.2899 29.802L14.3315 34.9944H18.4145L20.456 29.802C20.8235 29.6274 21.2318 29.4529 21.5993 29.2347L26.4581 31.4164L29.3979 28.2748L27.3564 23.0823C27.5197 22.6896 27.7238 22.2533 27.8872 21.8606L32.746 19.6789V15.3155L27.8872 13.1338C27.7647 12.7411 27.5605 12.3048 27.3564 11.9121L29.3979 6.71962L26.4581 3.57798L21.5993 5.75968C21.2318 5.58514 20.8235 5.36697 20.456 5.19244L18.4145 0L14.3315 0ZM16.373 10.9085C19.7619 10.9085 22.4976 13.8319 22.4976 17.4536C22.4976 21.0752 19.7619 23.9986 16.373 23.9986C12.9841 23.9986 10.2484 21.0752 10.2484 17.4536C10.2484 13.8319 12.9841 10.9085 16.373 10.9085Z" fill="#5A5A5A"/>
</svg>
